<svg width="65" height="18" viewBox="0 0 65 18" fill="none" xmlns="http://www.w3.org/2000/svg">
<path d="M55.4889 4.21252L57.8 8.19685L60.1111 4.21252L62.5609 5.62035L60.2498 9.60469H64.872V12.4203H60.2498L62.5609 16.4047L60.1111 17.8125L57.8 13.8282L55.4889 17.8125L53.0391 16.4047L55.3502 12.4203H0V9.60469H55.3502L53.0391 5.62035L55.4889 4.21252Z" fill="url(#paint0_linear_71_12)"/>
<path d="M51 5.12224V4.21252H47.6V11.0125V17.8125H51V11.0125C51 9.13475 52.5222 7.61252 54.4 7.61252H57.8V4.21252H54.4C53.1614 4.21252 52.0002 4.54366 51 5.12224Z" fill="white"/>
<path d="M40.8 4.21252C37.0445 4.21252 34 7.25699 34 11.0125C34 14.7681 37.0445 17.8125 40.8 17.8125H47.6V14.4125H40.8C39.5137 14.4125 38.3941 13.6982 37.8166 12.6445H44.2H47.6V11.0125C47.6 7.25699 44.5555 4.21252 40.8 4.21252ZM40.8 7.61252C42.0302 7.61252 43.1078 8.26588 43.7047 9.24452H37.8953C38.4922 8.26588 39.5698 7.61252 40.8 7.61252Z" fill="white"/>
<path d="M27.2 4.21252C23.4445 4.21252 20.4 7.25699 20.4 11.0125H23.8C23.8 12.8903 25.3222 14.4125 27.2 14.4125H20.4V17.8125H30.6C32.4778 17.8125 34 16.2903 34 14.4125V11.0125H23.8C23.8 9.13475 25.3222 7.61252 27.2 7.61252H34V4.21252H27.2Z" fill="white"/>
<path fill-rule="evenodd" clip-rule="evenodd" d="M13.6 4.21252C9.84448 4.21252 6.80002 7.25699 6.80002 11.0125C6.80002 14.7681 9.84448 17.8125 13.6 17.8125H17H20.4V11.0125V4.21252H17V5.12224C15.9998 4.54366 14.8386 4.21252 13.6 4.21252ZM17 11.0125C17 12.8903 15.4778 14.4125 13.6 14.4125C11.7222 14.4125 10.2 12.8903 10.2 11.0125C10.2 9.13475 11.7222 7.61252 13.6 7.61252C15.4778 7.61252 17 9.13475 17 11.0125Z" fill="white"/>
<path d="M3.4 0.8125H0V17.8125H3.4H6.8V14.4125H3.4V0.8125Z" fill="white"/>
<defs>
<linearGradient id="paint0_linear_71_12" x1="0" y1="11.0125" x2="64.872" y2="11.0125" gradientUnits="userSpaceOnUse">
<stop stop-color="#003049"/>
<stop offset="0.5" stop-color="#EAE2B7"/>
<stop offset="0.75" stop-color="#FCBF49"/>
<stop offset="0.875" stop-color="#F77F00"/>
<stop offset="1" stop-color="#D62828"/>
</linearGradient>
</defs>
</svg>
